<svg width="331" height="64" viewBox="0 0 331 64" fill="none" xmlns="http://www.w3.org/2000/svg">
<path fill-rule="evenodd" clip-rule="evenodd" d="M32.5 0C50.4224 3.21889e-05 65 14.353 65 31.9998C65 49.6466 50.4224 63.9999 32.5 64C27.9128 64 23.5474 63.0525 19.5897 61.3587C19.4606 61.3165 19.3193 61.2581 19.1761 61.176C7.887 56.1605 2.86597e-05 44.9744 0 32.0002C4.91341e-05 14.3534 14.5776 0 32.5 0ZM32.5004 4.30827C18.5586 4.30827 6.95776 14.3532 4.75816 27.4766L29.907 11.0301C31.0748 10.2636 32.4654 10.0552 33.7951 10.4328L33.9235 10.4711L33.9258 10.4718C35.6746 11.0236 37.0085 12.4765 37.7114 14.2765L49.7502 45.099L49.7537 45.1075L49.757 45.1162C50.4966 47.0917 50.6707 48.9892 49.8885 50.5808C49.293 51.7939 48.218 52.6355 46.8961 53.0594L46.8957 53.0596L27.5461 59.2575C29.1544 59.5423 30.8095 59.6923 32.5 59.6923C48.0055 59.6923 60.625 47.2672 60.625 32.0002C60.625 16.7332 48.0058 4.30831 32.5004 4.30827ZM32.4609 14.5582C32.4418 14.5609 32.4008 14.5699 32.3324 14.6148L32.3305 14.6161L4.39299 32.886C4.43211 34.1138 4.55477 35.3212 4.75261 36.504L23.421 42.8025L30.3421 18.6476C30.6727 17.4929 31.8894 16.8455 33.0356 17.1586L33.0381 17.1594L33.0406 17.1599C34.2061 17.4831 34.8788 18.6752 34.5522 19.8171L34.552 19.8177L29.7569 36.5553L43.6315 44.161H43.6319C44.6866 44.7395 45.0673 46.0525 44.4791 47.0923L44.4726 47.1037C44.072 47.7955 43.3359 48.1978 42.5657 48.1978C42.2119 48.1978 41.8417 48.1138 41.4995 47.9251L28.5363 40.8196L27.0059 46.1651L27.0046 46.1703L27.0031 46.1754C26.8384 46.7331 26.4506 47.208 25.921 47.4839L25.9211 47.4843C25.5902 47.6576 25.234 47.733 24.8984 47.733C24.6613 47.733 24.4211 47.6945 24.1897 47.6156V47.6159L17.8469 45.4756L14.9928 53.6492C16.6642 54.9615 18.4881 56.0895 20.4368 57.0025L45.5428 48.9601L45.5442 48.9595L45.5455 48.9591C45.8712 48.8555 45.9284 48.7483 45.9509 48.7027C46.0459 48.5046 46.1261 47.8722 45.655 46.6153L33.6281 15.8231L33.598 15.7489C33.2851 14.9977 32.8419 14.6544 32.5977 14.5769L32.5469 14.5635C32.5022 14.5543 32.4754 14.5562 32.4609 14.5582ZM6.08883 41.511C7.31869 44.8094 9.16984 47.8163 11.5028 50.3947L13.7071 44.0807L6.08883 41.511Z" fill="white"/>
<path d="M132.626 53H125.942V26.7188C125.942 24.5664 126.075 21.9326 126.339 18.8174H126.226C125.81 20.5921 125.442 21.8665 125.121 22.6406L113 53H108.355L96.2061 22.8672C95.8662 21.9798 95.5075 20.6299 95.1299 18.8174H95.0166C95.1676 20.4411 95.2432 23.0938 95.2432 26.7754V53H89.0127V12.3887H98.5L109.177 39.4346C109.989 41.5114 110.517 43.0596 110.763 44.0791H110.904C111.603 41.9456 112.169 40.3597 112.604 39.3213L123.479 12.3887H132.626V53Z" fill="white"/>
<path d="M164.175 53H157.803V48.4688H157.689C155.688 51.9427 152.752 53.6797 148.882 53.6797C146.031 53.6797 143.794 52.9056 142.17 51.3574C140.565 49.8092 139.763 47.7607 139.763 45.2119C139.763 39.7367 142.916 36.5459 149.222 35.6396L157.831 34.4219C157.831 30.2871 155.868 28.2197 151.94 28.2197C148.485 28.2197 145.37 29.4092 142.595 31.7881V26.0391C145.653 24.2266 149.184 23.3203 153.187 23.3203C160.512 23.3203 164.175 26.9264 164.175 34.1387V53ZM157.831 38.7549L151.742 39.6045C149.854 39.8499 148.429 40.3125 147.466 40.9922C146.522 41.653 146.05 42.8236 146.05 44.5039C146.05 45.7311 146.484 46.7412 147.353 47.5342C148.24 48.3083 149.42 48.6953 150.893 48.6953C152.894 48.6953 154.546 47.9967 155.849 46.5996C157.17 45.1836 157.831 43.4089 157.831 41.2754V38.7549Z" fill="white"/>
<path d="M175.531 17.9111C174.455 17.9111 173.53 17.5618 172.756 16.8633C172.001 16.1647 171.623 15.2773 171.623 14.2012C171.623 13.125 172.001 12.2282 172.756 11.5107C173.53 10.7933 174.455 10.4346 175.531 10.4346C176.645 10.4346 177.589 10.7933 178.363 11.5107C179.137 12.2282 179.524 13.125 179.524 14.2012C179.524 15.2207 179.137 16.0986 178.363 16.835C177.589 17.5524 176.645 17.9111 175.531 17.9111ZM178.788 53H172.218V24H178.788V53Z" fill="white"/>
<path d="M193.996 53H187.397V10.0664H193.996V53Z" fill="white"/>
<path d="M225.998 38.2734V53H219.286V12.3887H231.605C236.269 12.3887 239.884 13.4743 242.452 15.6455C245.02 17.8167 246.304 20.8753 246.304 24.8213C246.304 28.7673 244.963 31.9958 242.282 34.5068C239.601 37.0179 235.976 38.2734 231.407 38.2734H225.998ZM225.998 17.9395V32.7793H230.359C233.248 32.7793 235.448 32.109 236.958 30.7686C238.468 29.4281 239.224 27.54 239.224 25.1045C239.224 20.3278 236.448 17.9395 230.897 17.9395H225.998Z" fill="white"/>
<path d="M255.791 17.9111C254.715 17.9111 253.79 17.5618 253.016 16.8633C252.26 16.1647 251.883 15.2773 251.883 14.2012C251.883 13.125 252.26 12.2282 253.016 11.5107C253.79 10.7933 254.715 10.4346 255.791 10.4346C256.905 10.4346 257.849 10.7933 258.623 11.5107C259.397 12.2282 259.784 13.125 259.784 14.2012C259.784 15.2207 259.397 16.0986 258.623 16.835C257.849 17.5524 256.905 17.9111 255.791 17.9111ZM259.048 53H252.478V24H259.048V53Z" fill="white"/>
<path d="M274.256 53H267.657V10.0664H274.256V53Z" fill="white"/>
<path d="M307.391 40.2842H287.623C287.699 42.9652 288.52 45.0326 290.087 46.4863C291.673 47.9401 293.844 48.667 296.601 48.667C299.697 48.667 302.538 47.7419 305.125 45.8916V51.1875C302.482 52.849 298.989 53.6797 294.646 53.6797C290.38 53.6797 287.028 52.3675 284.593 49.7432C282.176 47.0999 280.968 43.39 280.968 38.6133C280.968 34.1009 282.299 30.4287 284.961 27.5967C287.642 24.7458 290.965 23.3203 294.93 23.3203C298.895 23.3203 301.963 24.5947 304.134 27.1436C306.305 29.6924 307.391 33.2324 307.391 37.7637V40.2842ZM301.047 35.6396C301.028 33.2796 300.471 31.4482 299.376 30.1455C298.281 28.8239 296.771 28.1631 294.845 28.1631C292.957 28.1631 291.352 28.8522 290.03 30.2305C288.728 31.6087 287.925 33.4118 287.623 35.6396H301.047Z" fill="white"/>
<path d="M330.472 30.2588C329.679 29.6357 328.536 29.3242 327.045 29.3242C325.1 29.3242 323.477 30.2021 322.174 31.958C320.871 33.7139 320.22 36.1022 320.22 39.123V53H313.649V24H320.22V29.9756H320.333C320.975 27.9365 321.957 26.3506 323.278 25.2178C324.619 24.0661 326.11 23.4902 327.753 23.4902C328.942 23.4902 329.849 23.6696 330.472 24.0283V30.2588Z" fill="white"/>
</svg>
