<svg width="81" height="82" viewBox="0 0 81 82" fill="none" xmlns="http://www.w3.org/2000/svg">
<path fill-rule="evenodd" clip-rule="evenodd" d="M40.4976 0C62.8304 4.0873e-05 80.9952 18.2252 80.9952 40.6329C80.9951 63.0405 62.8303 81.2662 40.4976 81.2663C34.7816 81.2663 29.3419 80.0632 24.4103 77.9124C24.2494 77.8588 24.0734 77.7846 23.8949 77.6804C9.82783 71.3118 3.57123e-05 57.1079 0 40.6334C6.1225e-05 18.2257 18.1648 0 40.4976 0ZM40.4981 5.47058C23.1255 5.47058 8.66993 18.2255 5.92905 34.8894L37.2665 14.0059C38.7217 13.0325 40.4545 12.768 42.1113 13.2474L42.2714 13.296L42.2743 13.297C44.4534 13.9976 46.1156 15.8425 46.9914 18.1281L61.9928 57.2661L61.9971 57.2769L62.0011 57.2879C62.9228 59.7964 63.1398 62.2059 62.1651 64.2268C61.423 65.7671 60.0835 66.8358 58.4363 67.3741L58.4358 67.3744L34.3247 75.2444C36.3288 75.606 38.3912 75.7964 40.4976 75.7964C59.8187 75.7964 75.5436 60.0192 75.5436 40.6334C75.5436 21.2476 59.8191 5.47063 40.4981 5.47058ZM40.4489 18.4858C40.4251 18.4892 40.374 18.5006 40.2888 18.5576L40.2864 18.5593L5.47402 41.7582C5.52276 43.3172 5.67561 44.8504 5.92213 46.3523L29.1845 54.3501L37.8087 23.6784C38.2207 22.2123 39.7368 21.3902 41.165 21.7878L41.1681 21.7887L41.1712 21.7894C42.6235 22.1998 43.4618 23.7135 43.0548 25.1635L43.0546 25.1642L37.0795 46.4174L54.3684 56.075H54.3689C55.6831 56.8097 56.1574 58.4769 55.4245 59.7972L55.4164 59.8116C54.9172 60.69 54 61.2008 53.0403 61.2009C52.5994 61.2009 52.1381 61.0943 51.7117 60.8547L35.5586 51.8322L33.6516 58.6198L33.6499 58.6265L33.648 58.6329C33.4428 59.341 32.9596 59.944 32.2996 60.2945L32.2998 60.2949C31.8875 60.515 31.4436 60.6107 31.0254 60.6107C30.7299 60.6107 30.4307 60.5619 30.1423 60.4616V60.4621L22.2387 57.7442L18.6822 68.123C20.7649 69.7894 23.0376 71.2217 25.4659 72.381L56.75 62.1688L56.7517 62.1681L56.7533 62.1676C57.1592 62.0361 57.2304 61.8999 57.2585 61.842C57.3768 61.5904 57.4768 60.7874 56.8898 59.1915L41.9033 20.092L41.8658 19.9977C41.4759 19.0438 40.9237 18.608 40.6193 18.5095L40.5561 18.4925C40.5004 18.4808 40.4669 18.4832 40.4489 18.4858ZM7.58717 52.7101C9.11967 56.8984 11.4264 60.7165 14.3335 63.9905L17.0801 55.9731L7.58717 52.7101Z" fill="#1A2635"/>
</svg>
