<svg width="152" height="152" viewBox="0 0 152 152" fill="none" xmlns="http://www.w3.org/2000/svg">
<g clip-path="url(#clip0_9_30)">
<path d="M76 0C117.974 0 152 34.0264 152 76C152 117.974 117.974 152 76 152C34.0264 152 0 117.974 0 76C0 34.0264 34.0264 0 76 0ZM76 8C38.5008 8 8.00032 38.5007 8 76C8.00006 103.571 24.5019 127.341 48.1221 137.999C48.4216 138.173 48.7172 138.298 48.9873 138.387C57.268 141.987 66.4022 144 76 144C113.499 144 144 113.499 144 76C144 38.5004 113.499 8.00007 76 8ZM76.001 17.1553C108.443 17.1555 134.845 43.5578 134.846 76C134.846 108.443 108.442 134.846 76 134.846C72.463 134.846 68.9999 134.527 65.6348 133.922L106.121 120.751C108.887 119.85 111.136 118.062 112.382 115.484C114.019 112.102 113.654 108.07 112.107 103.872L112.1 103.853L112.093 103.835L86.9043 38.3379C85.4337 34.5129 82.6421 31.4254 78.9834 30.2529L78.9785 30.251L78.71 30.1699C75.928 29.3676 73.0176 29.8106 70.5742 31.4395L17.9551 66.3877C22.5574 38.5005 46.8306 17.1553 76.001 17.1553ZM76.0986 38.9473L76.2041 38.9756C76.7153 39.1404 77.6432 39.8698 78.2979 41.4658L78.3604 41.624L103.524 107.058C104.51 109.728 104.342 111.072 104.143 111.493C104.095 111.59 103.976 111.818 103.295 112.038L103.292 112.039L103.29 112.04L50.7598 129.13C46.6824 127.19 42.8661 124.793 39.3691 122.005L45.3408 104.636L58.6123 109.183C59.0964 109.351 59.5987 109.433 60.0947 109.433C60.7969 109.433 61.5421 109.272 62.2344 108.903C63.3426 108.317 64.1545 107.308 64.499 106.123L64.502 106.112L64.5049 106.101L67.707 94.7422L94.8301 109.841C95.546 110.242 96.3202 110.42 97.0605 110.42C98.672 110.42 100.212 109.565 101.05 108.095L101.064 108.071C102.295 105.862 101.497 103.072 99.291 101.842L70.2607 85.6797L80.293 50.1123L80.2939 50.1113C80.9773 47.6847 79.5693 45.1515 77.1309 44.4648L77.126 44.4639L77.1201 44.4619C74.7222 43.797 72.1772 45.1727 71.4854 47.626L57.0039 98.9551L17.9443 85.5713C17.5304 83.0579 17.2732 80.4919 17.1914 77.8828L75.6455 39.0596L75.6494 39.0566C75.7921 38.9615 75.8778 38.9422 75.918 38.9365C75.9482 38.9322 76.0051 38.9277 76.0986 38.9473ZM36.6797 101.671L32.0674 115.089C27.186 109.61 23.3124 103.22 20.7393 96.2109L36.6797 101.671Z" fill="white"/>
<path fill-rule="evenodd" clip-rule="evenodd" d="M76 8C113.499 8.00007 144 38.5 144 75.9996C144 113.499 113.499 144 76 144C66.4022 144 57.2684 141.987 48.9877 138.387C48.7175 138.298 48.4219 138.173 48.1222 137.999C24.502 127.341 8.00006 103.571 8 76.0004C8.0001 38.5009 38.5007 8 76 8ZM76.0008 17.1551C46.8304 17.1551 22.5578 38.5006 17.9555 66.3878L70.5747 31.439C73.0181 29.8101 75.9276 29.3674 78.7096 30.1697L78.9785 30.251L78.9833 30.2527C82.6421 31.4251 85.4333 34.5126 86.9039 38.3376L112.093 103.835L112.1 103.853L112.107 103.872C113.654 108.07 114.019 112.102 112.382 115.484C111.136 118.062 108.887 119.85 106.121 120.751L65.635 133.922C69.0001 134.527 72.463 134.846 76 134.846C108.442 134.846 134.846 108.443 134.846 76.0004C134.846 43.558 108.443 17.1552 76.0008 17.1551ZM75.9183 38.9362C75.8783 38.9418 75.7925 38.961 75.6494 39.0564L75.6454 39.0592L17.1915 77.8827C17.2733 80.4918 17.53 83.0576 17.9439 85.571L57.004 98.9554L71.485 47.6261C72.1768 45.1725 74.7225 43.7968 77.1206 44.4621L77.1258 44.4637L77.1311 44.4649C79.5696 45.1516 80.9772 47.6847 80.2938 50.1114L80.2934 50.1126L70.2606 85.6799L99.2906 101.842C101.497 103.072 102.295 105.862 101.064 108.071L101.05 108.095C100.212 109.565 98.6721 110.42 97.0606 110.42C96.3202 110.42 95.5457 110.242 94.8297 109.841L67.7068 94.7417L64.5047 106.101L64.5019 106.112L64.4987 106.123C64.1542 107.308 63.3428 108.317 62.2346 108.903C61.5422 109.272 60.7974 109.433 60.0951 109.433C59.599 109.433 59.0965 109.351 58.6123 109.183L45.3413 104.636L39.3695 122.005C42.8666 124.793 46.6827 127.19 50.7602 129.13L103.29 112.04L103.292 112.039L103.295 112.038C103.977 111.818 104.096 111.59 104.143 111.493C104.342 111.072 104.51 109.728 103.524 107.058L78.3603 41.6242L78.2974 41.4663C77.6427 39.8701 76.7155 39.1406 76.2043 38.9758L76.0982 38.9474C76.0047 38.9278 75.9485 38.9319 75.9183 38.9362ZM20.7397 96.2109C23.3129 103.22 27.1861 109.61 32.0675 115.089L36.6795 101.671L20.7397 96.2109Z" fill="#1A2635"/>
</g>
<defs>
<clipPath id="clip0_9_30">
<rect width="152" height="152" fill="white"/>
</clipPath>
</defs>
</svg>
